solid WRAP
facet normal -0.0433881383027 -0.9027025653418 -0.4280718958071
outer loop
vertex 92.2603233738730 8.6873596159151 7.8792351169231
vertex 95.9164745155586 9.6997401679331 5.3737865618911
vertex 96.1953053177382 7.2902053825526 10.4266650709022
endloop
endfacet
facet normal -0.0762131603232 -0.8808838622884 -0.4671564784452
outer loop
vertex 92.2603233738730 8.6873596159151 7.8792351169231
vertex 90.1461918105236 9.7771935589737 6.1691175822344
vertex 95.9164745155586 9.6997401679331 5.3737865618911
endloop
endfacet
facet normal -0.0316269209788 -0.9029297735813 -0.4286228666904
outer loop
vertex 82.4723214510409 7.5178013953093 11.1682441931482
vertex 86.6994507047351 10.2183750221233 5.1673524625388
vertex 88.6041722321873 7.6749790638971 10.3846836719550
endloop
endfacet
facet normal -0.0762131603232 -0.8808838622884 -0.4671564784452
outer loop
vertex 90.1461918105236 9.7771935589737 6.1691175822344
vertex 91.6882113888599 11.8794080540502 1.9535514925139
vertex 95.9164745155586 9.6997401679331 5.3737865618911
endloop
endfacet
facet normal -0.0710755808576 -0.8899152363534 -0.4505542519074
outer loop
vertex 86.6994507047351 10.2183750221233 5.1673524625388
vertex 82.4723214510409 7.5178013953093 11.1682441931482
vertex 81.9424551184277 11.2685508650543 3.8435135318978
endloop
endfacet
facet normal -0.0762131603232 -0.8808838622884 -0.4671564784452
outer loop
vertex 88.6041722321873 7.6749790638971 10.3846836719550
vertex 90.1461918105236 9.7771935589737 6.1691175822344
vertex 92.2603233738730 8.6873596159151 7.8792351169231
endloop
endfacet
facet normal -0.0120653220865 -0.8968352309478 -0.4422001769943
outer loop
vertex 106.4633622499420 6.9428853058456 11.0139387904353
vertex 102.1852349273554 6.6355273993014 11.7540252946913
vertex 100.3208465297903 10.9956475372226 2.9620457645896
endloop
endfacet
facet normal -0.0271376200832 -0.9010662232184 -0.4328316196295
outer loop
vertex 100.3208465297903 10.9956475372226 2.9620457645896
vertex 109.1471046888565 9.7544621745701 4.9925502991581
vertex 106.4633622499420 6.9428853058456 11.0139387904353
endloop
endfacet
facet normal 0.0289784901120 -0.9016231841654 -0.4315505542647
outer loop
vertex 96.1953053177382 7.2902053825526 10.4266650709022
vertex 95.9164745155586 9.6997401679331 5.3737865618911
vertex 100.3208465297903 10.9956475372226 2.9620457645896
endloop
endfacet
facet normal -0.0280137386068 -0.8583140120046 -0.5123595292817
outer loop
vertex 100.3208465297903 10.9956475372226 2.9620457645896
vertex 95.9164745155586 9.6997401679331 5.3737865618911
vertex 91.6882113888599 11.8794080540502 1.9535514925139
endloop
endfacet
facet normal -0.0720622023526 -0.8360165596748 -0.5439516071688
outer loop
vertex 87.2829696041121 13.3896193383416 0.2160619715434
vertex 91.6882113888599 11.8794080540502 1.9535514925139
vertex 86.6994507047351 10.2183750221233 5.1673524625388
endloop
endfacet
facet normal -0.0345721232422 -0.8397257678740 -0.5419090357828
outer loop
vertex 86.6994507047351 10.2183750221233 5.1673524625388
vertex 81.9424551184277 11.2685508650543 3.8435135318978
vertex 87.2829696041121 13.3896193383416 0.2160619715434
endloop
endfacet
facet normal -0.0433881383027 -0.9027025653418 -0.4280718958071
outer loop
vertex 88.6041722321873 7.6749790638971 10.3846836719550
vertex 92.2603233738730 8.6873596159151 7.8792351169231
vertex 96.1953053177382 7.2902053825526 10.4266650709022
endloop
endfacet
facet normal 0.0005628739191 -0.8958367714495 -0.4443829003144
outer loop
vertex 102.1852349273554 6.6355273993014 11.7540252946913
vertex 96.1953053177382 7.2902053825526 10.4266650709022
vertex 100.3208465297903 10.9956475372226 2.9620457645896
endloop
endfacet
facet normal 0.0092031501141 -0.9102585879796 -0.4139379241351
outer loop
vertex 77.4568149005407 7.2316214334462 11.6860496316307
vertex 82.4723214510409 7.5178013953093 11.1682441931482
vertex 79.2831681607260 6.6143262960038 13.0841008118866
endloop
endfacet
facet normal -0.0406501387371 -0.8578701225831 -0.5122562044524
outer loop
vertex 90.4954637714074 5.2643550202840 14.2716469981742
vertex 88.6041722321873 7.6749790638971 10.3846836719550
vertex 96.1953053177382 7.2902053825526 10.4266650709022
endloop
endfacet
facet normal -0.0676721444637 -0.9717643056092 -0.2260411803355
outer loop
vertex 85.9643574194895 5.1225830884218 16.2976331164419
vertex 84.7729503685528 5.8212762380127 13.6505933496529
vertex 87.8828517124623 5.5538285814835 13.8693251451057
endloop
endfacet
facet normal -0.0141005352066 -0.8528075987296 -0.5220348402702
outer loop
vertex 87.8828517124623 5.5538285814835 13.8693251451057
vertex 88.6041722321873 7.6749790638971 10.3846836719550
vertex 90.4954637714074 5.2643550202840 14.2716469981742
endloop
endfacet
facet normal -0.0134939669783 -0.8763283762926 -0.4815251704321
outer loop
vertex 96.1953053177382 7.2902053825526 10.4266650709022
vertex 99.9450554376737 5.1457028689888 14.2243676909549
vertex 95.1972273651655 5.1029293868652 14.4352614460538
endloop
endfacet
facet normal 0.0830733786199 -0.9868699929572 -0.1385150921935
outer loop
vertex 80.4923380406030 6.0922144680186 13.3982416339328
vertex 82.7152603816267 6.3275020524341 13.0550834499122
vertex 81.1434075061371 5.8813365104180 15.2911448879983
endloop
endfacet
facet normal -0.2267095473479 -0.9121764137217 -0.3413751182953
outer loop
vertex 83.4467115347749 5.4444548161398 14.9288811200722
vertex 81.1434075061371 5.8813365104180 15.2911448879983
vertex 82.7152603816267 6.3275020524341 13.0550834499122
endloop
endfacet
facet normal -0.1105179531003 -0.9651636534746 -0.2371600810721
outer loop
vertex 90.4954637714074 5.2643550202840 14.2716469981742
vertex 92.1045496562442 4.5773431390900 16.3177165419409
vertex 89.7808905171215 4.7633399869000 16.6436088853835
endloop
endfacet
facet normal -0.0191190844772 -0.9770529537523 -0.2121367157581
outer loop
vertex 87.6522752955114 4.8817415847689 16.2901224254025
vertex 90.4954637714074 5.2643550202840 14.2716469981742
vertex 89.7808905171215 4.7633399869000 16.6436088853835
endloop
endfacet
facet normal -0.0805492485521 -0.9566118334658 -0.2800100330895
outer loop
vertex 97.6918199960456 4.4296322046206 16.0178707733835
vertex 96.1625159167296 4.3662453203031 16.6743506001703
vertex 95.1972273651655 5.1029293868652 14.4352614460538
endloop
endfacet
facet normal -0.0154345198440 -0.9118008119196 0.4103426068298
outer loop
vertex 89.7808905171215 4.7633399869000 16.6436088853835
vertex 92.1045496562442 4.5773431390900 16.3177165419409
vertex 92.0070876679145 5.5081752804899 18.3824039743327
endloop
endfacet
facet normal -0.1210405808684 -0.8635677844790 0.4894893863947
outer loop
vertex 87.8145416942942 7.0260518967403 20.1132862702662
vertex 85.9643574194895 5.1225830884218 16.2976331164419
vertex 87.6522752955114 4.8817415847689 16.2901224254025
endloop
endfacet
facet normal -0.2009414216905 -0.8712704909268 0.4477837387503
outer loop
vertex 78.4992462411246 6.1779340462378 14.6816880910838
vertex 81.1434075061371 5.8813365104180 15.2911448879983
vertex 76.5615005652762 8.9056598259041 19.1195750356379
endloop
endfacet
facet normal -0.1040756500449 -0.8590339675869 0.5012273951009
outer loop
vertex 92.0070876679145 5.5081752804899 18.3824039743327
vertex 87.8145416942942 7.0260518967403 20.1132862702662
vertex 89.7808905171215 4.7633399869000 16.6436088853835
endloop
endfacet
facet normal -0.0411239017023 -0.8172716487370 0.5747833303771
outer loop
vertex 95.2844481257757 4.9974175338257 17.8906534981596
vertex 92.0070876679145 5.5081752804899 18.3824039743327
vertex 94.1105976427683 4.5869671037961 17.2230579168825
endloop
endfacet
facet normal -0.0647655751313 -0.8759043807664 0.4781181193305
outer loop
vertex 92.0070876679145 5.5081752804899 18.3824039743327
vertex 95.2844481257757 4.9974175338257 17.8906534981596
vertex 97.9180954771072 7.9556877593872 23.6669071555808
endloop
endfacet
facet normal -0.2665071646428 -0.8697285553175 0.4153867730916
outer loop
vertex 83.4904182645423 5.6809270190533 16.3773453990402
vertex 81.3762564951205 8.2656533319374 20.4327730928327
vertex 81.1434075061371 5.8813365104180 15.2911448879983
endloop
endfacet
facet normal -0.2307851509435 -0.8786811612954 0.4179206035703
outer loop
vertex 81.1434075061371 5.8813365104180 15.2911448879983
vertex 81.3762564951205 8.2656533319374 20.4327730928327
vertex 76.5615005652762 8.9056598259041 19.1195750356379
endloop
endfacet
facet normal -0.0999778955146 -0.8555020724916 0.5080557295918
outer loop
vertex 87.8145416942942 7.0260518967403 20.1132862702662
vertex 92.0070876679145 5.5081752804899 18.3824039743327
vertex 97.9180954771072 7.9556877593872 23.6669071555808
endloop
endfacet
facet normal -0.1488942471686 -0.8863357160007 0.4384512535067
outer loop
vertex 84.2463609926866 9.6878801263918 24.2824882872551
vertex 81.3762564951205 8.2656533319374 20.4327730928327
vertex 87.8145416942942 7.0260518967403 20.1132862702662
endloop
endfacet
facet normal -0.0832543626955 -0.8803280501948 0.4670023930693
outer loop
vertex 97.9180954771072 7.9556877593872 23.6669071555808
vertex 89.9384158294100 10.9551682419831 27.8985421334434
vertex 87.8145416942942 7.0260518967403 20.1132862702662
endloop
endfacet
facet normal -0.1038484579175 -0.8762376066661 0.4705562181634
outer loop
vertex 84.2463609926866 9.6878801263918 24.2824882872551
vertex 87.8145416942942 7.0260518967403 20.1132862702662
vertex 89.9384158294100 10.9551682419831 27.8985421334434
endloop
endfacet
facet normal 0.0037038444758 -0.8899749702057 -0.4559943354291
outer loop
vertex 77.4568149005407 7.2316214334462 11.6860496316307
vertex 78.5782249550124 8.2408537913482 9.7254156066975
vertex 82.4723214510409 7.5178013953093 11.1682441931482
endloop
endfacet
facet normal 0.0137297310880 -0.8968118467642 -0.4421990569728
outer loop
vertex 88.4832715824820 9.2235158816647 7.2403845722427
vertex 89.5112846347062 10.6249922117157 4.4300071790957
vertex 90.1461918105236 9.7771935589737 6.1691175822344
endloop
endfacet
facet normal 0.0037038444758 -0.8899749702057 -0.4559943354291
outer loop
vertex 78.5782249550124 8.2408537913482 9.7254156066975
vertex 81.9424551184277 11.2685508650543 3.8435135318978
vertex 82.4723214510409 7.5178013953093 11.1682441931482
endloop
endfacet
facet normal -0.1638130705059 -0.7587218871910 -0.6304810669867
outer loop
vertex 79.2831681607260 6.6143262960038 13.0841008118866
vertex 82.4723214510409 7.5178013953093 11.1682441931482
vertex 80.4923380406030 6.0922144680186 13.3982416339328
endloop
endfacet
facet normal 0.0070132264722 -0.8453412820452 -0.5341806169496
outer loop
vertex 82.7152603816267 6.3275020524341 13.0550834499122
vertex 80.4923380406030 6.0922144680186 13.3982416339328
vertex 82.4723214510409 7.5178013953093 11.1682441931482
endloop
endfacet
facet normal -0.0465767992781 -0.8442935812551 -0.5338529295794
outer loop
vertex 84.7729503685528 5.8212762380127 13.6505933496529
vertex 82.4723214510409 7.5178013953093 11.1682441931482
vertex 88.6041722321873 7.6749790638971 10.3846836719550
endloop
endfacet
facet normal -0.0558636149829 -0.8476791508529 -0.5275597726612
outer loop
vertex 82.4723214510409 7.5178013953093 11.1682441931482
vertex 84.7729503685528 5.8212762380127 13.6505933496529
vertex 82.7152603816267 6.3275020524341 13.0550834499122
endloop
endfacet
facet normal 0.0174977814917 -0.8631325763280 -0.5046741357791
outer loop
vertex 99.9450554376737 5.1457028689888 14.2243676909549
vertex 96.1953053177382 7.2902053825526 10.4266650709022
vertex 102.1852349273554 6.6355273993014 11.7540252946913
endloop
endfacet
facet normal -0.0361930908310 -0.8502868782581 -0.5250735994488
outer loop
vertex 84.7729503685528 5.8212762380127 13.6505933496529
vertex 88.6041722321873 7.6749790638971 10.3846836719550
vertex 87.8828517124623 5.5538285814835 13.8693251451057
endloop
endfacet
facet normal -0.0889106454296 -0.9488902369593 -0.3028237364089
outer loop
vertex 78.4992462411246 6.1779340462378 14.6816880910838
vertex 77.4568149005407 7.2316214334462 11.6860496316307
vertex 79.2831681607260 6.6143262960038 13.0841008118866
endloop
endfacet
facet normal -0.0308245202889 -0.8473755651425 -0.5300985762558
outer loop
vertex 106.4633622499420 6.9428853058456 11.0139387904353
vertex 104.5831501455454 5.2780774858552 13.7845066984854
vertex 102.1852349273554 6.6355273993014 11.7540252946913
endloop
endfacet
facet normal -0.0133323034716 -0.8763472952126 -0.4814952417810
outer loop
vertex 96.1953053177382 7.2902053825526 10.4266650709022
vertex 95.1972273651655 5.1029293868652 14.4352614460538
vertex 90.4954637714074 5.2643550202840 14.2716469981742
endloop
endfacet
facet normal -0.2820457726354 -0.8813103662724 -0.3791335126829
outer loop
vertex 79.2831681607260 6.6143262960038 13.0841008118866
vertex 80.4923380406030 6.0922144680186 13.3982416339328
vertex 78.4992462411246 6.1779340462378 14.6816880910838
endloop
endfacet
facet normal -0.0264973968475 -0.8452171408314 -0.5337657471261
outer loop
vertex 102.1852349273554 6.6355273993014 11.7540252946913
vertex 104.5831501455454 5.2780774858552 13.7845066984854
vertex 99.9450554376737 5.1457028689888 14.2243676909549
endloop
endfacet
facet normal -0.0643767071955 -0.9599583907785 -0.2726454245804
outer loop
vertex 90.4954637714074 5.2643550202840 14.2716469981742
vertex 87.6522752955114 4.8817415847689 16.2901224254025
vertex 87.8828517124623 5.5538285814835 13.8693251451057
endloop
endfacet
facet normal -0.0221888979946 -0.9528900088883 -0.3025033615791
outer loop
vertex 90.4954637714074 5.2643550202840 14.2716469981742
vertex 95.1972273651655 5.1029293868652 14.4352614460538
vertex 92.1045496562442 4.5773431390900 16.3177165419409
endloop
endfacet
facet normal -0.1130972795532 -0.9150784984984 -0.3870921685383
outer loop
vertex 84.7729503685528 5.8212762380127 13.6505933496529
vertex 83.4467115347749 5.4444548161398 14.9288811200722
vertex 82.7152603816267 6.3275020524341 13.0550834499122
endloop
endfacet
facet normal -0.0085476034330 -0.9249359718890 -0.3800268232392
outer loop
vertex 95.1972273651655 5.1029293868652 14.4352614460538
vertex 99.9450554376737 5.1457028689888 14.2243676909549
vertex 97.6918199960456 4.4296322046206 16.0178707733835
endloop
endfacet
facet normal -0.1589182004894 -0.9736182168617 0.1637454529088
outer loop
vertex 81.1434075061371 5.8813365104180 15.2911448879983
vertex 83.4467115347749 5.4444548161398 14.9288811200722
vertex 83.4904182645423 5.6809270190533 16.3773453990402
endloop
endfacet
facet normal 0.0199897749047 -0.9644352003813 -0.2635624274527
outer loop
vertex 84.7729503685528 5.8212762380127 13.6505933496529
vertex 85.9643574194895 5.1225830884218 16.2976331164419
vertex 83.4467115347749 5.4444548161398 14.9288811200722
endloop
endfacet
facet normal -0.0932399479610 -0.9925439422434 -0.0785037248811
outer loop
vertex 80.4923380406030 6.0922144680186 13.3982416339328
vertex 81.1434075061371 5.8813365104180 15.2911448879983
vertex 78.4992462411246 6.1779340462378 14.6816880910838
endloop
endfacet
facet normal -0.1369325177701 -0.9510394938551 -0.2770800727318
outer loop
vertex 87.8828517124623 5.5538285814835 13.8693251451057
vertex 87.6522752955114 4.8817415847689 16.2901224254025
vertex 85.9643574194895 5.1225830884218 16.2976331164419
endloop
endfacet
facet normal -0.2121621091378 -0.9634279110964 0.1636884222130
outer loop
vertex 83.4467115347749 5.4444548161398 14.9288811200722
vertex 85.9643574194895 5.1225830884218 16.2976331164419
vertex 83.4904182645423 5.6809270190533 16.3773453990402
endloop
endfacet
facet normal -0.0447168289939 -0.9407547865438 -0.3361262215294
outer loop
vertex 94.4795756003152 4.4121704792973 16.4640405659496
vertex 92.1045496562442 4.5773431390900 16.3177165419409
vertex 95.1972273651655 5.1029293868652 14.4352614460538
endloop
endfacet
facet normal 0.0138542357777 -0.9480283700885 -0.3178840506513
outer loop
vertex 96.1625159167296 4.3662453203031 16.6743506001703
vertex 94.4795756003152 4.4121704792973 16.4640405659496
vertex 95.1972273651655 5.1029293868652 14.4352614460538
endloop
endfacet
facet normal -0.0796053333452 -0.9791678343432 0.1867975992634
outer loop
vertex 94.4795756003152 4.4121704792973 16.4640405659496
vertex 94.1105976427683 4.5869671037961 17.2230579168825
vertex 92.1045496562442 4.5773431390900 16.3177165419409
endloop
endfacet
facet normal 0.1621485449061 -0.9442405687598 0.2865616821785
outer loop
vertex 97.6918199960456 4.4296322046206 16.0178707733835
vertex 97.5081372622537 5.0028589852083 18.0106280220084
vertex 96.1625159167296 4.3662453203031 16.6743506001703
endloop
endfacet
facet normal -0.0766136345949 -0.9065362063897 0.4151174020669
outer loop
vertex 96.1625159167296 4.3662453203031 16.6743506001703
vertex 95.2844481257757 4.9974175338257 17.8906534981596
vertex 94.4795756003152 4.4121704792973 16.4640405659496
endloop
endfacet
facet normal -0.0219807496888 -0.8937913389173 0.4479440691868
outer loop
vertex 95.2844481257757 4.9974175338257 17.8906534981596
vertex 96.1625159167296 4.3662453203031 16.6743506001703
vertex 97.5081372622537 5.0028589852083 18.0106280220084
endloop
endfacet
facet normal -0.1292230243274 -0.8625182744313 0.4892480314275
outer loop
vertex 87.6522752955114 4.8817415847689 16.2901224254025
vertex 89.7808905171215 4.7633399869000 16.6436088853835
vertex 87.8145416942942 7.0260518967403 20.1132862702662
endloop
endfacet
facet normal 0.1613324249761 -0.9416870129084 0.2952920899227
outer loop
vertex 94.4795756003152 4.4121704792973 16.4640405659496
vertex 95.2844481257757 4.9974175338257 17.8906534981596
vertex 94.1105976427683 4.5869671037961 17.2230579168825
endloop
endfacet
facet normal -0.1743508173403 -0.8447554914126 0.5059544961961
outer loop
vertex 87.8145416942942 7.0260518967403 20.1132862702662
vertex 83.4904182645423 5.6809270190533 16.3773453990402
vertex 85.9643574194895 5.1225830884218 16.2976331164419
endloop
endfacet
facet normal -0.1751891594727 -0.9006101414225 0.3977563721301
outer loop
vertex 92.1045496562442 4.5773431390900 16.3177165419409
vertex 94.1105976427683 4.5869671037961 17.2230579168825
vertex 92.0070876679145 5.5081752804899 18.3824039743327
endloop
endfacet
facet normal -0.1431690928086 -0.8667359283041 0.4777776066866
outer loop
vertex 83.4904182645423 5.6809270190533 16.3773453990402
vertex 87.8145416942942 7.0260518967403 20.1132862702662
vertex 81.3762564951205 8.2656533319374 20.4327730928327
endloop
endfacet
facet normal -0.0228649687183 -0.8855612725178 0.4639595088176
outer loop
vertex 97.5081372622537 5.0028589852083 18.0106280220084
vertex 97.9180954771072 7.9556877593872 23.6669071555808
vertex 95.2844481257757 4.9974175338257 17.8906534981596
endloop
endfacet
facet normal 0.0137297310880 -0.8968118467642 -0.4421990569728
outer loop
vertex 88.6041722321873 7.6749790638971 10.3846836719550
vertex 86.6994507047351 10.2183750221233 5.1673524625388
vertex 88.4832715824820 9.2235158816647 7.2403845722427
endloop
endfacet
facet normal 0.0137297310880 -0.8968118467642 -0.4421990569728
outer loop
vertex 89.5112846347062 10.6249922117157 4.4300071790957
vertex 88.4832715824820 9.2235158816647 7.2403845722427
vertex 86.6994507047351 10.2183750221233 5.1673524625388
endloop
endfacet
facet normal 0.0137297310880 -0.8968118467642 -0.4421990569728
outer loop
vertex 90.1461918105236 9.7771935589737 6.1691175822344
vertex 88.6041722321873 7.6749790638971 10.3846836719550
vertex 88.4832715824820 9.2235158816647 7.2403845722427
endloop
endfacet
facet normal 0.0137297310880 -0.8968118467642 -0.4421990569728
outer loop
vertex 86.6994507047351 10.2183750221233 5.1673524625388
vertex 91.6882113888599 11.8794080540502 1.9535514925139
vertex 89.5112846347062 10.6249922117157 4.4300071790957
endloop
endfacet
facet normal 0.0137297310880 -0.8968118467642 -0.4421990569728
outer loop
vertex 91.6882113888599 11.8794080540502 1.9535514925139
vertex 90.1461918105236 9.7771935589737 6.1691175822344
vertex 89.5112846347062 10.6249922117157 4.4300071790957
endloop
endfacet
endsolid WRAP
